<svg xmlns="http://www.w3.org/2000/svg" xmlns:xlink="http://www.w3.org/1999/xlink" version="1.1" id="Layer_1" x="0px" y="0px" width="99.665px" height="100px" viewBox="0 0 99.665 100" enable-background="new 0 0 99.665 100" xml:space="preserve">
<path d="M85.183,74.5c5.229,0,10.653,4.101,12.081,9.123l2.057,7.267c1.421,5.022-1.7,9.136-6.923,9.11L7.334,99.948  c-5.217,0-8.376-4.127-7.021-9.162l1.94-7.124C3.61,78.601,9.008,74.5,14.225,74.5H85.183z"/>
<path d="M93.488,0H6.186c-2.2,0-3.984,1.778-3.984,3.984V64.78c0,2.206,1.784,3.984,3.984,3.984h87.302  c2.199,0,3.984-1.778,3.984-3.984V3.984C97.472,1.778,95.687,0,93.488,0z M89.504,60.797H10.17V7.968h79.334V60.797z"/>
<g>
	<g>
		<path d="M54.064,44.342c3.984-1.687,6.56-5.567,6.56-10.044c0-4.321-2.575-8.201-6.56-9.888c-1.045-0.428-2.265,0.052-2.712,1.103    c-0.441,1.051,0.052,2.271,1.103,2.712c2.446,1.025,4.029,3.413,4.029,6.229c0,2.66-1.583,5.048-4.029,6.073    c-1.051,0.454-1.544,1.674-1.103,2.712c0.337,0.792,1.103,1.272,1.907,1.272C53.526,44.511,53.804,44.446,54.064,44.342z"/>
	</g>
	<g>
		<path d="M61.604,49.325c5.139-3.231,8.201-8.798,8.201-15.027c0-6.073-3.062-11.627-8.195-14.872    c-0.96-0.584-2.245-0.324-2.854,0.649c-0.61,0.96-0.318,2.245,0.643,2.855c3.925,2.479,6.268,6.722,6.268,11.523    c0,4.646-2.343,8.902-6.262,11.368c-0.967,0.623-1.259,1.895-0.648,2.855c0.396,0.623,1.064,0.973,1.752,0.973    C60.883,49.649,61.266,49.546,61.604,49.325z"/>
	</g>
	<g>
		<path d="M66.009,56.073c7.637-4.633,12.191-12.705,12.191-21.775c0-8.902-4.555-16.974-12.191-21.606    c-0.967-0.571-2.245-0.272-2.842,0.701c-0.591,0.973-0.279,2.245,0.7,2.842c6.385,3.867,10.193,10.615,10.193,18.22    c0,7.449-3.809,14.209-10.193,18.077c-0.979,0.597-1.291,1.855-0.7,2.842c0.39,0.636,1.07,1,1.771,1    C65.309,56.372,65.672,56.268,66.009,56.073z"/>
	</g>
</g>
<g>
	<g>
		<path d="M48.315,43.239c0.441-1.038-0.052-2.258-1.103-2.712c-2.446-1.025-4.029-3.413-4.029-6.229    c0-2.66,1.583-5.048,4.029-6.073c1.051-0.441,1.544-1.661,1.103-2.712c-0.454-1.051-1.667-1.531-2.712-1.103    c-3.984,1.687-6.56,5.567-6.56,10.044c0,4.321,2.576,8.202,6.56,9.888c0.26,0.104,0.539,0.169,0.805,0.169    C47.212,44.511,47.978,44.031,48.315,43.239z"/>
	</g>
	<g>
		<path d="M40.912,48.676c0.61-0.96,0.318-2.232-0.649-2.855c-3.919-2.465-6.261-6.722-6.261-11.523    c0-4.646,2.342-8.889,6.268-11.368c0.96-0.61,1.252-1.895,0.643-2.855c-0.61-0.973-1.901-1.233-2.855-0.649    c-5.132,3.244-8.195,8.798-8.195,15.027c0,6.073,3.062,11.64,8.201,14.872c0.337,0.221,0.72,0.324,1.097,0.324    C39.848,49.649,40.516,49.299,40.912,48.676z"/>
	</g>
	<g>
		<path d="M36.5,55.372c0.59-0.986,0.279-2.245-0.694-2.842c-6.391-3.867-10.193-10.628-10.193-18.232    c0-7.449,3.802-14.197,10.193-18.064c0.973-0.597,1.285-1.869,0.694-2.842c-0.597-0.973-1.869-1.271-2.842-0.701    c-7.63,4.633-12.186,12.704-12.186,21.762c0,8.902,4.555,16.987,12.186,21.62c0.337,0.194,0.701,0.299,1.07,0.299    C35.429,56.372,36.111,56.008,36.5,55.372z"/>
	</g>
</g>
</svg>